<?xml version="1.0" encoding="UTF-8" standalone="no"?>
<svg width="256px" height="256px" viewBox="0 0 256 256" version="1.1" xmlns="http://www.w3.org/2000/svg" xmlns:xlink="http://www.w3.org/1999/xlink">
    <!-- Generator: Sketch 41.2 (35397) - http://www.bohemiancoding.com/sketch -->
    <title>logo-square</title>
    <desc>Created with Sketch.</desc>
    <defs></defs>
    <g id="Page-1" stroke="none" stroke-width="1" fill="none" fill-rule="evenodd">
        <g id="logo-square" fill="#000000">
            <g id="logo" transform="translate(13.000000, 7.000000)">
                <g id="tag" transform="translate(10.201333, 145.368999)">
                    <path d="M93.6616519,0.0699686912 C93.5734298,0.0760091864 93.4856088,0.0869190951 93.3985903,0.102648544 C92.8588506,0.17637115 92.3602269,0.431453022 91.984612,0.826000176 L68.3745026,24.4690847 C68.1729089,24.6161305 67.9954098,24.7936334 67.8483683,24.9952303 L62.1924662,30.618306 C61.5140648,31.2070863 61.2210786,32.1253137 61.4330924,32.9982059 C61.6451062,33.8710981 62.3266511,34.5526249 63.199549,34.7646155 C64.0724469,34.976606 64.9906664,34.6835954 65.5794286,34.0051783 L69.4267601,30.1578582 C70.4212305,32.47655 69.9547989,35.2528726 68.0456644,37.1619394 C65.5349953,39.6726536 61.546363,39.6725409 59.0356826,37.1619394 C56.5250473,34.6513379 56.5251149,30.6624802 59.0356826,28.1519914 C60.1152897,27.0724293 61.450487,26.46064 62.85012,26.310538 C63.2233352,26.2710968 63.5969335,26.2857464 63.9681541,26.310538 C64.8280208,26.3732558 65.6557242,25.9711163 66.1378668,25.2563838 C66.6200094,24.5416512 66.6828907,23.6235799 66.3027016,22.8497838 C65.9225126,22.0759877 65.157369,21.5647496 64.2969811,21.5096423 C63.6438798,21.4656935 63.0050113,21.4724549 62.3568796,21.5423221 C59.9104208,21.8047752 57.5172414,22.8963949 55.6487088,24.764781 C51.3032576,29.1102999 51.303235,36.2032928 55.6487088,40.548699 C59.9942165,44.8942179 67.120047,44.8942179 71.4655096,40.548699 C75.2317386,36.7826277 75.7074446,30.9556973 72.9452533,26.6391396 L78.3380938,21.2462878 L82.7773227,25.6854513 L82.7445302,47.289775 L40.3910041,89.6433147 L6.5871111,55.8064827 L48.9406282,13.4529318 L70.544873,13.4529318 L71.6628959,14.5711462 C72.2518286,15.2490374 73.1698258,15.5416109 74.0424048,15.329516 C74.9149837,15.117421 75.5962635,14.4361163 75.8083265,13.5635296 C76.0203895,12.6909429 75.7277824,11.7729564 75.0498696,11.1840485 L73.2412877,9.34259513 C72.7859472,8.89400496 72.1705239,8.64550436 71.5313651,8.65214872 L47.9212535,8.65214872 C47.8445713,8.64846866 47.7677568,8.64846866 47.6910746,8.65214872 C47.1323078,8.70234325 46.6087613,8.94662934 46.2113309,9.34259513 L1.49021502,54.0965376 C0.558115097,55.0331908 0.558115097,56.546982 1.49021502,57.4836352 L38.7139642,94.7073396 C39.650603,95.6393572 41.1642991,95.6393572 42.1009379,94.7073396 L86.8549232,49.9862009 C87.303556,49.5308715 87.5520944,48.9154369 87.545471,48.2762558 L87.5782635,24.666178 C87.5674668,24.0336899 87.3074906,23.4310191 86.854833,22.9891381 L81.7250653,17.8594155 L95.3715745,4.21287248 C96.0930724,3.52955119 96.3190489,2.47236802 95.9399618,1.55379292 C95.5608747,0.63521782 94.655076,0.0451074082 93.6616519,0.0695179346 L93.6616519,0.0699686912 Z M28.4214446,41.0423902 C27.1864604,41.1615546 26.2456896,42.2020737 26.2511644,43.4427817 L26.2511644,57.1222411 C26.2347977,57.9906301 26.6887115,58.800151 27.4381492,59.2391389 C28.1875868,59.6781268 29.1156827,59.6781268 29.8651203,59.2391389 C30.614558,58.800151 31.0684718,57.9906301 31.0521051,57.1222411 L31.0521051,45.8432971 L42.3310266,45.8432971 C43.1996213,45.8599892 44.0094754,45.4061511 44.4486629,44.6565847 C44.8878503,43.9070184 44.8878503,42.9786689 44.4486629,42.2291026 C44.0094754,41.4795362 43.1996213,41.0256981 42.3310266,41.0423902 L28.6516347,41.0423902 C28.5749488,41.0387097 28.4981305,41.0387097 28.4214446,41.0423902 L28.4214446,41.0423902 Z M52.4919252,51.4334676 C51.2572384,51.569552 50.3302183,52.6249511 50.3545164,53.8668771 L50.3545164,65.1457084 L39.0755949,65.1457084 C38.2076306,65.1300119 37.3987962,65.5840815 36.9602195,66.3332537 C36.5216429,67.0824259 36.5216429,68.0099992 36.9602195,68.7591715 C37.3987962,69.5083437 38.2076306,69.9624132 39.0755949,69.9467168 L52.7549981,69.9467168 C54.0806569,69.9464814 55.1552518,68.8718715 55.1554685,67.5462126 L55.1554685,53.8668771 C55.1643051,53.218836 54.9107736,52.5947482 54.452501,52.1364672 C53.9942284,51.6781861 53.3701453,51.424643 52.7221041,51.4334676 C52.6454219,51.4297876 52.5686074,51.4297876 52.4919252,51.4334676 L52.4919252,51.4334676 Z" id="Shape"></path>
                </g>
                <g id="dog">
                    <path d="M224.939399,55.342233 L185.154199,55.342233 C178.013266,55.342233 172.402532,49.7314997 172.402532,42.5905664 C172.402532,31.6241332 163.986432,22.9529999 153.275033,22.1878999 L112.214666,1.53019999 C110.684466,0.765099996 109.154266,1.02013333 107.879099,2.04026666 C106.603933,3.06039998 106.348899,4.84563331 106.858966,6.3758333 L109.664333,13.2617333 L84.1609996,2.80536665 C82.6307996,2.04026666 80.8455662,2.55033332 79.8254329,3.82549998 C78.8052996,5.10066664 78.5502662,6.88589996 79.5703996,8.41609996 L94.3623328,30.8590332 C84.4160329,43.1006331 77.0200663,61.9730997 82.1207329,90.0267662 C73.7046329,93.5972328 48.7113664,105.328766 26.0133999,124.456266 C24.4831999,125.731433 24.2281665,128.281766 25.5033332,129.811966 C26.2684332,130.832099 27.2885665,131.087133 28.3086998,131.087133 C29.0737998,131.087133 30.0939332,130.832099 30.8590332,130.066999 C40.5502998,121.905933 50.7516331,115.020033 59.6777997,109.919366 C66.818733,122.671033 95.6374995,162.711266 171.382399,163.986432 C166.791799,174.952866 160.160932,186.429366 149.959599,196.630699 C148.429399,198.160899 148.429399,200.456199 149.959599,201.986399 C150.724699,202.751499 151.744833,203.006532 152.764966,203.006532 C153.785099,203.006532 154.805233,202.751499 155.570333,201.986399 C187.194466,170.362266 188.724666,127.771699 188.469632,116.040166 L194.590432,116.040166 L198.670966,116.040166 C217.543432,116.040166 229.019932,101.758299 229.019932,79.0603329 L229.019932,59.167733 C228.764899,56.872433 226.979665,55.342233 224.939399,55.342233 Z M105.328766,19.8925999 C103.288499,21.4227999 101.503266,23.2080332 99.4629995,24.9932665 L92.5770995,14.5368999 L105.328766,19.8925999 Z M66.3086663,106.093866 C74.2146996,101.758299 80.8455662,98.6978995 84.4160329,97.1676995 C86.7113329,101.503266 91.8119995,108.899233 100.738166,116.550233 C98.1878328,123.691166 100.738166,131.852233 107.879099,138.993166 C113.234799,144.348866 119.355599,147.154233 124.966333,147.154233 C129.556933,147.154233 133.892499,145.368999 137.462966,141.798533 L142.053566,137.207933 C153.019999,140.013299 165.006566,141.543499 177.758232,141.798533 C176.738099,146.389133 175.462932,151.489799 173.932732,156.590466 C99.7180328,156.080399 72.6844996,117.315333 66.3086663,106.093866 Z M133.892499,107.369033 L110.939499,130.322033 C107.879099,126.241499 105.073733,120.120699 110.684466,114.509966 L127.771699,97.4227328 C129.301899,101.503266 131.342166,104.818699 133.892499,107.369033 Z M132.362299,136.187799 C126.751566,141.798533 120.375733,138.993166 116.550233,135.932766 L140.268333,112.214666 C143.838799,114.254933 148.174366,115.530099 152.764966,115.785133 L132.362299,136.187799 Z M179.288432,133.892499 C168.321999,133.892499 158.120666,132.617333 148.684433,130.577066 L163.221332,116.040166 L180.563599,116.040166 C180.563599,119.355599 180.563599,125.731433 179.288432,133.892499 Z M198.415932,108.389166 L194.335399,108.389166 L158.885766,108.389166 L154.805233,108.389166 C134.147533,108.389166 132.107266,87.7314662 132.107266,79.0603329 C132.107266,77.0200663 130.322033,75.2348329 128.281766,75.2348329 C126.241499,75.2348329 124.456266,77.0200663 124.456266,79.0603329 C124.456266,82.6307996 124.711299,85.9462329 125.221366,89.2616662 L105.073733,109.409299 C104.818699,109.664333 104.818699,109.664333 104.563666,109.919366 C94.3623328,100.993199 90.2817995,92.5770995 89.5166995,91.0468995 C85.9462329,73.4495996 84.6710662,42.0804998 113.234799,23.4630665 L119.610633,39.0200998 C120.120699,40.5502998 121.650899,41.3153998 123.181099,41.3153998 C123.691166,41.3153998 124.201233,41.3153998 124.711299,41.0603664 C126.751566,40.2952665 127.516666,37.9999665 126.751566,35.9596998 L117.315333,13.0066999 L137.207933,22.9529999 C136.442833,23.7180999 135.677733,24.7382332 135.677733,26.0133999 C135.677733,28.0536665 137.462966,29.8388998 139.503233,29.8388998 L151.234766,29.8388998 L151.744833,29.8388998 C158.630732,30.0939332 164.241466,35.7046665 164.241466,42.5905664 L164.241466,43.6106998 L151.999866,43.6106998 C149.959599,43.6106998 148.174366,45.3959331 148.174366,47.4361997 C148.174366,49.4764664 149.959599,51.2616997 151.999866,51.2616997 L165.516632,51.2616997 L166.026699,51.2616997 C169.342132,58.1475997 176.228032,63.2482663 184.644132,63.2482663 L220.603832,63.2482663 L220.603832,79.0603329 C221.113899,87.7314662 218.818599,108.389166 198.415932,108.389166 Z" id="Shape"></path>
                    <path d="M65.7985997,45.9059998 C65.7985997,43.8657331 64.0133663,42.0804998 61.9730997,42.0804998 L4.59059998,42.0804998 C2.55033332,42.0804998 0.765099996,43.8657331 0.765099996,45.9059998 C0.765099996,47.9462664 2.55033332,49.7314997 4.59059998,49.7314997 L61.9730997,49.7314997 C64.0133663,49.7314997 65.7985997,47.9462664 65.7985997,45.9059998 Z" id="Shape"></path>
                    <path d="M60.1878663,71.409333 C60.1878663,69.3690663 58.402633,67.583833 56.3623664,67.583833 L20.6576999,67.583833 C18.6174332,67.583833 16.8321999,69.3690663 16.8321999,71.409333 C16.8321999,73.4495996 18.6174332,75.2348329 20.6576999,75.2348329 L56.3623664,75.2348329 C58.402633,75.2348329 60.1878663,73.4495996 60.1878663,71.409333 Z" id="Shape"></path>
                    <path d="M46.1610331,24.2281665 L71.6643663,24.2281665 C73.7046329,24.2281665 75.4898663,22.4429332 75.4898663,20.4026666 C75.4898663,18.3623999 73.7046329,16.5771666 71.6643663,16.5771666 L46.1610331,16.5771666 C44.1207664,16.5771666 42.3355331,18.3623999 42.3355331,20.4026666 C42.3355331,22.4429332 43.8657331,24.2281665 46.1610331,24.2281665 Z" id="Shape"></path>
                </g>
            </g>
        </g>
    </g>
</svg>