<?xml version="1.0" encoding="UTF-8" standalone="no"?>
<svg width="256px" height="270px" viewBox="0 0 256 270" version="1.1" xmlns="http://www.w3.org/2000/svg" xmlns:xlink="http://www.w3.org/1999/xlink">
    <!-- Generator: Sketch 41.2 (35397) - http://www.bohemiancoding.com/sketch -->
    <title>logo</title>
    <desc>Created with Sketch.</desc>
    <defs></defs>
    <g id="Page-1" stroke="none" stroke-width="1" fill="none" fill-rule="evenodd">
        <g id="logo" fill="#000000">
            <g>
                <g id="tag" transform="translate(11.377778, 162.133333)">
                    <path d="M104.462959,0.0780376641 C104.364563,0.084774765 104.266614,0.096942833 104.169561,0.114486243 C103.567577,0.196710734 103.01145,0.481209316 102.592519,0.921256682 L76.2596295,27.2909237 C76.0347875,27.4549272 75.8368187,27.6529003 75.67282,27.8777458 L69.3646644,34.1492893 C68.608028,34.8059693 68.2812539,35.830089 68.5177177,36.8036455 C68.7541814,37.7772019 69.5143239,38.5373242 70.4878867,38.7737621 C71.4614494,39.0101999 72.4855604,38.6833985 73.1422203,37.9267446 L77.433236,33.6357414 C78.5423914,36.2218309 78.0221697,39.3183262 75.8928688,41.4475517 C73.0926628,44.247808 68.6440509,44.2476823 65.8438323,41.4475517 C63.0436639,38.647421 63.0437393,34.1985578 65.8438323,31.3985528 C67.0479425,30.1944929 68.5371183,29.5121503 70.0981607,29.3447382 C70.514416,29.3007486 70.9310987,29.3170876 71.3451294,29.3447382 C72.3041581,29.4146888 73.2273144,28.9661736 73.765059,28.1690162 C74.3028036,27.3718588 74.3729365,26.347913 73.948903,25.4848807 C73.5248695,24.6218484 72.6714876,24.0516531 71.7118775,23.9901906 C70.9834589,23.9411736 70.2709143,23.9487147 69.5480385,24.0266392 C66.8194476,24.319359 64.1502805,25.5368672 62.0662638,27.6207205 C57.2196838,32.467376 57.2196586,40.3783515 62.0662638,45.2248813 C66.9129068,50.0715368 74.8605068,50.0715368 79.7070995,45.2248813 C83.9076599,41.0244968 84.4382256,34.5255895 81.3574911,29.711235 L87.3722482,23.6964654 L92.3234206,28.6475649 L92.2868463,52.7433559 L45.0490005,99.9812167 L7.34675402,62.2422326 L54.5845898,15.0043591 L78.6802927,15.0043591 L79.9272489,16.2515289 C80.5840989,17.0075964 81.607962,17.3339103 82.581169,17.0973559 C83.554376,16.8608016 84.3142227,16.1009271 84.5507415,15.1277114 C84.7872602,14.1544957 84.4609088,13.1306446 83.7048173,12.4738223 L81.687665,10.4200077 C81.1798134,9.91968493 80.4934179,9.64252658 79.7805497,9.6499372 L53.447658,9.6499372 C53.3621327,9.64583274 53.2764597,9.64583274 53.1909344,9.6499372 C52.5677291,9.70592029 51.9838058,9.97837809 51.5405427,10.4200077 L1.66207053,60.3350921 C0.622478393,61.3797626 0.622478393,63.0681283 1.66207053,64.1127988 L43.17856,105.629238 C44.2232145,106.668739 45.911474,106.668739 46.9561284,105.629238 L96.8712606,55.7507407 C97.371631,55.2429014 97.6488315,54.5564934 97.6414442,53.8436002 L97.6780185,27.5107463 C97.6659766,26.805318 97.3760193,26.1331457 96.8711601,25.6403058 L91.1498141,19.9190101 L106.370074,4.69871198 C107.174777,3.93658829 107.426814,2.75748798 107.00401,1.73298039 C106.581205,0.708472804 105.570947,0.0503093128 104.462959,0.0775349251 L104.462959,0.0780376641 Z M31.6990801,45.7755062 C30.3216743,45.9084129 29.2724114,47.0689275 29.2785174,48.4527171 L29.2785174,63.7097278 C29.2602634,64.6782615 29.7665237,65.5811386 30.6023885,66.0707517 C31.4382532,66.5603648 32.4733795,66.5603648 33.3092443,66.0707517 C34.1451091,65.5811386 34.6513694,64.6782615 34.6331153,63.7097278 L34.6331153,51.1300664 L47.2127516,51.1300664 C48.1815149,51.1486833 49.0847635,50.6425075 49.5745992,49.8064992 C50.0644349,48.9704908 50.0644349,47.9350817 49.5745992,47.0990734 C49.0847635,46.2630651 48.1815149,45.7568892 47.2127516,45.7755062 L31.9558164,45.7755062 C31.8702869,45.7714013 31.7846097,45.7714013 31.6990801,45.7755062 L31.6990801,45.7755062 Z M58.5454317,57.36491 C57.1683575,57.5166879 56.134431,58.6937985 56.1615312,60.0789466 L56.1615312,72.6584823 L43.581895,72.6584823 C42.6138347,72.6409757 41.7117234,73.1474097 41.2225689,73.9829784 C40.7334145,74.8185472 40.7334145,75.8530907 41.2225689,76.6886594 C41.7117234,77.5242281 42.6138347,78.0306622 43.581895,78.0131556 L58.8388427,78.0131556 C60.3173801,78.012893 61.5159,76.8143563 61.5161417,75.3358189 L61.5161417,60.0789466 C61.5259974,59.3561717 61.2432279,58.6601125 60.7321062,58.1489812 C60.2209844,57.63785 59.5249304,57.3550677 58.8021554,57.36491 C58.71663,57.3608055 58.630957,57.3608055 58.5454317,57.36491 L58.5454317,57.36491 Z" id="Shape"></path>
                </g>
                <g id="dog">
                    <path d="M250.88,61.7244444 L206.506667,61.7244444 C198.542222,61.7244444 192.284444,55.4666667 192.284444,47.5022222 C192.284444,35.2711111 182.897778,25.6 170.951111,24.7466667 L125.155556,1.70666667 C123.448889,0.853333333 121.742222,1.13777778 120.32,2.27555556 C118.897778,3.41333333 118.613333,5.40444444 119.182222,7.11111111 L122.311111,14.7911111 L93.8666667,3.12888889 C92.16,2.27555556 90.1688889,2.84444444 89.0311111,4.26666667 C87.8933333,5.68888889 87.6088889,7.68 88.7466667,9.38666667 L105.244444,34.4177778 C94.1511111,48.0711111 85.9022222,69.12 91.5911111,100.408889 C82.2044444,104.391111 54.3288889,117.475556 29.0133333,138.808889 C27.3066667,140.231111 27.0222222,143.075556 28.4444444,144.782222 C29.2977778,145.92 30.4355556,146.204444 31.5733333,146.204444 C32.4266667,146.204444 33.5644444,145.92 34.4177778,145.066667 C45.2266667,135.964444 56.6044444,128.284444 66.56,122.595556 C74.5244444,136.817778 106.666667,181.475556 191.146667,182.897778 C186.026667,195.128889 178.631111,207.928889 167.253333,219.306667 C165.546667,221.013333 165.546667,223.573333 167.253333,225.28 C168.106667,226.133333 169.244444,226.417778 170.382222,226.417778 C171.52,226.417778 172.657778,226.133333 173.511111,225.28 C208.782222,190.008889 210.488889,142.506667 210.204444,129.422222 L217.031111,129.422222 L221.582222,129.422222 C242.631111,129.422222 255.431111,113.493333 255.431111,88.1777778 L255.431111,65.9911111 C255.146667,63.4311111 253.155556,61.7244444 250.88,61.7244444 Z M117.475556,22.1866667 C115.2,23.8933333 113.208889,25.8844444 110.933333,27.8755556 L103.253333,16.2133333 L117.475556,22.1866667 Z M73.9555556,118.328889 C82.7733333,113.493333 90.1688889,110.08 94.1511111,108.373333 C96.7111111,113.208889 102.4,121.457778 112.355556,129.991111 C109.511111,137.955556 112.355556,147.057778 120.32,155.022222 C126.293333,160.995556 133.12,164.124444 139.377778,164.124444 C144.497778,164.124444 149.333333,162.133333 153.315556,158.151111 L158.435556,153.031111 C170.666667,156.16 184.035556,157.866667 198.257778,158.151111 C197.12,163.271111 195.697778,168.96 193.991111,174.648889 C111.217778,174.08 81.0666667,130.844444 73.9555556,118.328889 Z M149.333333,119.751111 L123.733333,145.351111 C120.32,140.8 117.191111,133.973333 123.448889,127.715556 L142.506667,108.657778 C144.213333,113.208889 146.488889,116.906667 149.333333,119.751111 Z M147.626667,151.893333 C141.368889,158.151111 134.257778,155.022222 129.991111,151.608889 L156.444444,125.155556 C160.426667,127.431111 165.262222,128.853333 170.382222,129.137778 L147.626667,151.893333 Z M199.964444,149.333333 C187.733333,149.333333 176.355556,147.911111 165.831111,145.635556 L182.044444,129.422222 L201.386667,129.422222 C201.386667,133.12 201.386667,140.231111 199.964444,149.333333 Z M221.297778,120.888889 L216.746667,120.888889 L177.208889,120.888889 L172.657778,120.888889 C149.617778,120.888889 147.342222,97.8488889 147.342222,88.1777778 C147.342222,85.9022222 145.351111,83.9111111 143.075556,83.9111111 C140.8,83.9111111 138.808889,85.9022222 138.808889,88.1777778 C138.808889,92.16 139.093333,95.8577778 139.662222,99.5555556 L117.191111,122.026667 C116.906667,122.311111 116.906667,122.311111 116.622222,122.595556 C105.244444,112.64 100.693333,103.253333 99.84,101.546667 C95.8577778,81.92 94.4355556,46.9333333 126.293333,26.1688889 L133.404444,43.52 C133.973333,45.2266667 135.68,46.08 137.386667,46.08 C137.955556,46.08 138.524444,46.08 139.093333,45.7955556 C141.368889,44.9422222 142.222222,42.3822222 141.368889,40.1066667 L130.844444,14.5066667 L153.031111,25.6 C152.177778,26.4533333 151.324444,27.5911111 151.324444,29.0133333 C151.324444,31.2888889 153.315556,33.28 155.591111,33.28 L168.675556,33.28 L169.244444,33.28 C176.924444,33.5644444 183.182222,39.8222222 183.182222,47.5022222 L183.182222,48.64 L169.528889,48.64 C167.253333,48.64 165.262222,50.6311111 165.262222,52.9066667 C165.262222,55.1822222 167.253333,57.1733333 169.528889,57.1733333 L184.604444,57.1733333 L185.173333,57.1733333 C188.871111,64.8533333 196.551111,70.5422222 205.937778,70.5422222 L246.044444,70.5422222 L246.044444,88.1777778 C246.613333,97.8488889 244.053333,120.888889 221.297778,120.888889 Z" id="Shape"></path>
                    <path d="M73.3866667,51.2 C73.3866667,48.9244444 71.3955556,46.9333333 69.12,46.9333333 L5.12,46.9333333 C2.84444444,46.9333333 0.853333333,48.9244444 0.853333333,51.2 C0.853333333,53.4755556 2.84444444,55.4666667 5.12,55.4666667 L69.12,55.4666667 C71.3955556,55.4666667 73.3866667,53.4755556 73.3866667,51.2 Z" id="Shape"></path>
                    <path d="M67.1288889,79.6444444 C67.1288889,77.3688889 65.1377778,75.3777778 62.8622222,75.3777778 L23.04,75.3777778 C20.7644444,75.3777778 18.7733333,77.3688889 18.7733333,79.6444444 C18.7733333,81.92 20.7644444,83.9111111 23.04,83.9111111 L62.8622222,83.9111111 C65.1377778,83.9111111 67.1288889,81.92 67.1288889,79.6444444 Z" id="Shape"></path>
                    <path d="M51.4844444,27.0222222 L79.9288889,27.0222222 C82.2044444,27.0222222 84.1955556,25.0311111 84.1955556,22.7555556 C84.1955556,20.48 82.2044444,18.4888889 79.9288889,18.4888889 L51.4844444,18.4888889 C49.2088889,18.4888889 47.2177778,20.48 47.2177778,22.7555556 C47.2177778,25.0311111 48.9244444,27.0222222 51.4844444,27.0222222 Z" id="Shape"></path>
                </g>
            </g>
        </g>
    </g>
</svg>