<?xml version="1.0" encoding="UTF-8" standalone="no"?>
<svg width="90px" height="95px" viewBox="0 0 90 95" version="1.1" xmlns="http://www.w3.org/2000/svg" xmlns:xlink="http://www.w3.org/1999/xlink">
    <!-- Generator: Sketch 41.2 (35397) - http://www.bohemiancoding.com/sketch -->
    <title>logo</title>
    <desc>Created with Sketch.</desc>
    <defs></defs>
    <g id="Page-1" stroke="none" stroke-width="1" fill="none" fill-rule="evenodd">
        <g id="logo" fill="#000000">
            <g id="tag" transform="translate(4.000000, 57.000000)">
                <path d="M36.7252591,0.0274351163 C36.6906667,0.0298036283 36.6562316,0.0340814647 36.6221112,0.0402490698 C36.4104762,0.0691561174 36.214963,0.16917515 36.0676823,0.323879302 L26.810026,9.59446535 C26.73098,9.65212286 26.6613816,9.72172275 26.6037258,9.80077 L24.3860148,12.0056095 C24.1200098,12.2364736 24.0051283,12.5965157 24.0882601,12.9387816 C24.1713919,13.2810475 24.4386295,13.548278 24.7808977,13.6314007 C25.1231658,13.7145234 25.4832048,13.5996323 25.7140618,13.3336212 L27.222622,11.8250653 C27.6125595,12.7342374 27.429669,13.8228491 26.6810867,14.5714049 C25.6966393,15.55587 24.1326741,15.5558258 23.1482223,14.5714049 C22.1637881,13.586984 22.1638146,12.0229305 23.1482223,11.0385537 C23.5715423,10.6152514 24.0950807,10.3753653 24.6438846,10.3165095 C24.7902244,10.3010444 24.9367144,10.3067886 25.082272,10.3165095 C25.4194306,10.3411015 25.7439777,10.1834204 25.9330286,9.90316975 C26.1220794,9.6229191 26.1467355,9.26293817 25.9976612,8.95952838 C25.8485869,8.65611859 25.5485698,8.45565928 25.2112069,8.4340514 C24.9551223,8.41681884 24.7046183,8.41947 24.4504823,8.44686535 C23.491212,8.54977465 22.552833,8.97780488 21.8201709,9.71040953 C20.1162951,11.4143119 20.1162862,14.1955142 21.8201709,15.8993723 C23.5240688,17.6032747 26.3181469,17.6032747 28.0220272,15.8993723 C29.4987867,14.4226747 29.6853137,12.1379026 28.602243,10.445356 L30.716806,8.3307886 L32.4574526,10.0714095 L32.4445944,18.542586 L15.8375393,35.1496465 L2.58284321,21.8820349 L19.1898948,5.27497 L27.6610404,5.27497 L28.0994234,5.71342814 C28.3303473,5.9792331 28.6902991,6.09395283 29.0324422,6.0107892 C29.3745853,5.92762557 29.6417189,5.66048219 29.72487,5.31833604 C29.8080211,4.9761899 29.6932882,4.61624224 29.4274748,4.38532814 L28.7183197,3.66328395 C28.5397782,3.48738923 28.2984672,3.38995075 28.0478495,3.39255605 L18.7901923,3.39255605 C18.7601248,3.39111307 18.7300054,3.39111307 18.6999379,3.39255605 C18.4808423,3.4122376 18.2755567,3.50802355 18.119722,3.66328395 L0.58432167,21.2115558 C0.21884006,21.5788228 0.21884006,22.1723888 0.58432167,22.5396558 L15.1799625,37.1352791 C15.5472238,37.5007284 16.1407526,37.5007284 16.5080139,37.1352791 L34.0563026,19.5998698 C34.232214,19.4213325 34.3296673,19.1800172 34.3270702,18.9293907 L34.3399284,9.67174674 C34.3356949,9.42374463 34.2337568,9.18743403 34.0562672,9.01417 L32.0448565,7.00277698 L37.3957293,1.65189093 C37.6786327,1.38395682 37.7672393,0.969429369 37.6185972,0.609250919 C37.469955,0.24907247 37.1147862,0.0176868678 36.7252591,0.0272583721 L36.7252591,0.0274351163 Z M11.1442079,16.0929514 C10.6599636,16.1396764 10.2910821,16.5476698 10.2932288,17.0341584 L10.2932288,22.3979512 C10.2868113,22.7384513 10.4647935,23.055869 10.7586522,23.2279987 C11.0525109,23.4001283 11.4164225,23.4001283 11.7102812,23.2279987 C12.0041399,23.055869 12.1821221,22.7384513 12.1757046,22.3979512 L12.1757046,17.975414 L16.598233,17.975414 C16.9388138,17.981959 17.2563622,17.8040065 17.42857,17.5100974 C17.6007779,17.2161882 17.6007779,16.8521772 17.42857,16.558268 C17.2563622,16.2643588 16.9388138,16.0864064 16.598233,16.0929514 L11.2344667,16.0929514 C11.2043977,16.0915083 11.1742768,16.0915083 11.1442079,16.0929514 L11.1442079,16.0929514 Z M20.5823783,20.1673512 C20.0982507,20.2207106 19.7347609,20.6345385 19.7442883,21.1215047 L19.7442883,25.5439977 L15.32176,25.5439977 C14.9814263,25.537843 14.6642778,25.7158862 14.4923094,26.0096409 C14.320341,26.3033955 14.320341,26.6671022 14.4923094,26.9608568 C14.6642778,27.2546115 14.9814263,27.4326547 15.32176,27.4265 L20.6855307,27.4265 C21.2053289,27.4264077 21.6266836,27.0050471 21.6267686,26.4852488 L21.6267686,21.1215047 C21.6302334,20.8674041 21.5308223,20.6226958 21.3511311,20.4430012 C21.1714398,20.2633066 20.9267333,20.163891 20.6726327,20.1673512 C20.6425652,20.1659082 20.6124458,20.1659082 20.5823783,20.1673512 L20.5823783,20.1673512 Z" id="Shape"></path>
            </g>
            <g id="dog">
                <path d="M88.2,21.7 L72.6,21.7 C69.8,21.7 67.6,19.5 67.6,16.7 C67.6,12.4 64.3,9 60.1,8.7 L44,0.6 C43.4,0.3 42.8,0.4 42.3,0.8 C41.8,1.2 41.7,1.9 41.9,2.5 L43,5.2 L33,1.1 C32.4,0.8 31.7,1 31.3,1.5 C30.9,2 30.8,2.7 31.2,3.3 L37,12.1 C33.1,16.9 30.2,24.3 32.2,35.3 C28.9,36.7 19.1,41.3 10.2,48.8 C9.6,49.3 9.5,50.3 10,50.9 C10.3,51.3 10.7,51.4 11.1,51.4 C11.4,51.4 11.8,51.3 12.1,51 C15.9,47.8 19.9,45.1 23.4,43.1 C26.2,48.1 37.5,63.8 67.2,64.3 C65.4,68.6 62.8,73.1 58.8,77.1 C58.2,77.7 58.2,78.6 58.8,79.2 C59.1,79.5 59.5,79.6 59.9,79.6 C60.3,79.6 60.7,79.5 61,79.2 C73.4,66.8 74,50.1 73.9,45.5 L76.3,45.5 L77.9,45.5 C85.3,45.5 89.8,39.9 89.8,31 L89.8,23.2 C89.7,22.3 89,21.7 88.2,21.7 Z M41.3,7.8 C40.5,8.4 39.8,9.1 39,9.8 L36.3,5.7 L41.3,7.8 Z M26,41.6 C29.1,39.9 31.7,38.7 33.1,38.1 C34,39.8 36,42.7 39.5,45.7 C38.5,48.5 39.5,51.7 42.3,54.5 C44.4,56.6 46.8,57.7 49,57.7 C50.8,57.7 52.5,57 53.9,55.6 L55.7,53.8 C60,54.9 64.7,55.5 69.7,55.6 C69.3,57.4 68.8,59.4 68.2,61.4 C39.1,61.2 28.5,46 26,41.6 Z M52.5,42.1 L43.5,51.1 C42.3,49.5 41.2,47.1 43.4,44.9 L50.1,38.2 C50.7,39.8 51.5,41.1 52.5,42.1 Z M51.9,53.4 C49.7,55.6 47.2,54.5 45.7,53.3 L55,44 C56.4,44.8 58.1,45.3 59.9,45.4 L51.9,53.4 Z M70.3,52.5 C66,52.5 62,52 58.3,51.2 L64,45.5 L70.8,45.5 C70.8,46.8 70.8,49.3 70.3,52.5 Z M77.8,42.5 L76.2,42.5 L62.3,42.5 L60.7,42.5 C52.6,42.5 51.8,34.4 51.8,31 C51.8,30.2 51.1,29.5 50.3,29.5 C49.5,29.5 48.8,30.2 48.8,31 C48.8,32.4 48.9,33.7 49.1,35 L41.2,42.9 C41.1,43 41.1,43 41,43.1 C37,39.6 35.4,36.3 35.1,35.7 C33.7,28.8 33.2,16.5 44.4,9.2 L46.9,15.3 C47.1,15.9 47.7,16.2 48.3,16.2 C48.5,16.2 48.7,16.2 48.9,16.1 C49.7,15.8 50,14.9 49.7,14.1 L46,5.1 L53.8,9 C53.5,9.3 53.2,9.7 53.2,10.2 C53.2,11 53.9,11.7 54.7,11.7 L59.3,11.7 L59.5,11.7 C62.2,11.8 64.4,14 64.4,16.7 L64.4,17.1 L59.6,17.1 C58.8,17.1 58.1,17.8 58.1,18.6 C58.1,19.4 58.8,20.1 59.6,20.1 L64.9,20.1 L65.1,20.1 C66.4,22.8 69.1,24.8 72.4,24.8 L86.5,24.8 L86.5,31 C86.7,34.4 85.8,42.5 77.8,42.5 Z" id="Shape"></path>
                <path d="M25.8,18 C25.8,17.2 25.1,16.5 24.3,16.5 L1.8,16.5 C1,16.5 0.3,17.2 0.3,18 C0.3,18.8 1,19.5 1.8,19.5 L24.3,19.5 C25.1,19.5 25.8,18.8 25.8,18 Z" id="Shape"></path>
                <path d="M23.6,28 C23.6,27.2 22.9,26.5 22.1,26.5 L8.1,26.5 C7.3,26.5 6.6,27.2 6.6,28 C6.6,28.8 7.3,29.5 8.1,29.5 L22.1,29.5 C22.9,29.5 23.6,28.8 23.6,28 Z" id="Shape"></path>
                <path d="M18.1,9.5 L28.1,9.5 C28.9,9.5 29.6,8.8 29.6,8 C29.6,7.2 28.9,6.5 28.1,6.5 L18.1,6.5 C17.3,6.5 16.6,7.2 16.6,8 C16.6,8.8 17.2,9.5 18.1,9.5 Z" id="Shape"></path>
            </g>
        </g>
    </g>
</svg>